<?xml version="1.0" encoding="iso-8859-1"?>
<!-- Generator: Adobe Illustrator 19.0.0, SVG Export Plug-In . SVG Version: 6.00 Build 0)  -->
<svg version="1.1" id="Layer_1" xmlns="http://www.w3.org/2000/svg" xmlns:xlink="http://www.w3.org/1999/xlink" x="0px" y="0px"
	 viewBox="0 0 512 512" style="enable-background:new 0 0 512 512;" xml:space="preserve">
<polygon style="fill:#FFDA44;" points="111.304,0 111.304,100.174 77.913,100.174 77.913,200.348 44.522,200.348 44.522,333.913 
	133.565,333.913 133.565,512 200.348,512 200.348,512 200.348,478.609 233.739,478.609 233.739,467.478 233.739,445.217 
	267.13,445.217 267.13,411.826 300.522,411.826 300.522,378.435 333.913,378.435 333.913,345.043 367.304,345.043 367.304,311.652 
	400.696,311.652 400.696,233.739 400.696,233.739 300.522,233.739 300.522,200.348 333.913,200.348 333.913,166.957 
	367.304,166.957 367.304,133.565 400.696,133.565 400.696,100.174 434.087,100.174 434.087,66.783 467.478,66.783 467.478,0 "/>
<polygon points="200.348,478.609 166.957,478.609 166.957,333.913 166.957,300.522 77.913,300.522 77.913,200.348 44.522,200.348 
	44.522,333.913 66.783,333.913 77.913,333.913 133.565,333.913 133.565,478.609 133.565,512 166.957,512 200.348,512 
	200.348,478.609 233.739,478.609 233.739,445.217 200.348,445.217 "/>
<rect x="233.739" y="411.826" width="33.391" height="33.391"/>
<rect x="267.13" y="378.435" width="33.391" height="33.391"/>
<rect x="300.522" y="345.043" width="33.391" height="33.391"/>
<rect x="333.913" y="311.652" width="33.391" height="33.391"/>
<polygon points="300.522,200.348 267.13,200.348 267.13,233.739 233.739,233.739 233.739,267.13 267.13,267.13 300.522,267.13 
	367.304,267.13 367.304,311.652 400.696,311.652 400.696,267.13 400.696,267.13 400.696,233.739 400.696,233.739 367.304,233.739 
	300.522,233.739 300.522,200.348 333.913,200.348 333.913,166.957 300.522,166.957 "/>
<rect x="333.913" y="133.565" width="33.391" height="33.391"/>
<rect x="77.913" y="100.174" width="33.391" height="100.174"/>
<rect x="367.304" y="100.174" width="33.391" height="33.391"/>
<rect x="400.696" y="66.783" width="33.391" height="33.391"/>
<polygon points="434.087,0 144.696,0 111.304,0 111.304,100.174 144.696,100.174 144.696,33.391 434.087,33.391 434.087,66.783 
	467.478,66.783 467.478,33.391 467.478,0 "/>
<g>
</g>
<g>
</g>
<g>
</g>
<g>
</g>
<g>
</g>
<g>
</g>
<g>
</g>
<g>
</g>
<g>
</g>
<g>
</g>
<g>
</g>
<g>
</g>
<g>
</g>
<g>
</g>
<g>
</g>
</svg>
